<?xml version="1.0" encoding="UTF-8"?><svg id="Layer_2" xmlns="http://www.w3.org/2000/svg" viewBox="0 0 106.83 116.43"><defs><style>.cls-1{fill:none;}.cls-1,.cls-2{stroke:#a29c9c;stroke-miterlimit:10;stroke-width:.5px;}.cls-3,.cls-2{fill:#a29c9c;}</style></defs><g id="Layer_1-2"><g><g><path class="cls-3" d="M38.77,78.13l21.56-26.71c-1.44-1.82-1.49-4.45,.02-6.33,1.7-2.13,4.9-2.53,7.07-.88,2.29,1.75,2.68,5.03,.88,7.26-1.39,1.73-3.68,2.3-5.66,1.6l-21.66,26.84c-.12,.15,.03,.36,.21,.29l38.63-15.06,7.43-20.93-23.35-18.85-18.89,11.68-6.57,40.94c-.03,.19,.21,.3,.33,.15Z"/><rect class="cls-3" x="63.41" y="29" width="30.01" height="4.53" rx=".38" ry=".38" transform="translate(119.8 104.84) rotate(-141.09)"/><path class="cls-3" d="M77.43,3.57h24.72c.21,0,.38,.17,.38,.38V27.27c0,1.92-1.56,3.48-3.48,3.48h-18.51c-1.92,0-3.48-1.56-3.48-3.48V3.95c0-.21,.17-.38,.38-.38Z" transform="translate(148.89 86.91) rotate(-141.09)"/></g><path class="cls-1" d="M25.55,48.87c-10.43,12.93-8.41,31.86,4.51,42.3,12.93,10.43,31.86,8.41,42.3-4.51"/><g><line class="cls-2" x1="3.96" y1="70.1" x2="52.37" y2="109.17"/><circle class="cls-2" cx="54.97" cy="111.27" r="4.91" transform="translate(-66.14 84.16) rotate(-51.09)"/><circle class="cls-2" cx="5.16" cy="71.07" r="4.91" transform="translate(-53.38 30.45) rotate(-51.09)"/></g><rect class="cls-3" x="68.89" y="83.18" width="6.94" height="6.94" transform="translate(70.48 -26.22) rotate(38.91)"/><rect class="cls-3" x="26.59" y="87.7" width="6.94" height="6.94" transform="translate(63.93 1.34) rotate(38.91)"/><rect class="cls-3" x="22.08" y="45.4" width="6.94" height="6.94" transform="translate(36.36 -5.21) rotate(38.91)"/></g></g></svg>